<?xml version="1.0" encoding="UTF-8"?>
<!-- Created by Crease (https://forums.wyze.com/u/Crease) -->
<svg version="1.1" viewBox="0 0 360 360" xmlns="http://www.w3.org/2000/svg">
	<style type="text/css">
		.flair-base{
			fill:#00d0b9;
			stroke:#3f3f3f;
			stroke-width:2;
		}
		.flair-group{
			fill:#ffffff;
			stroke:#00d0b9;
			stroke-width:4;
		}
</style>
	<g id="Flair_Admin">
		<g id="Base_Admin" class="flair-base">
			<rect x="1" y="1" width="358" height="358" rx="90" ry="90" />
		</g>
		<g id="Group_Admin" class="flair-group">
			<path d="m101.64 321.52c0-2.1192.21004-7.0144.46659-10.878.25685-3.8638.85364-9.2898 1.3261-12.058.4727-2.7681 1.2653-6.4271 1.7611-8.1316.49579-1.7042 2.1003-6.9555 3.5657-11.669 1.465-4.7142 4.0398-12.329 5.7209-16.922 1.6812-4.5932 4.2987-11.417 5.8172-15.164 1.5182-3.747 4.2936-10.274 6.1672-14.505 1.8738-4.2304 5.3253-11.648 7.67-16.482 2.3448-4.8348 5.7002-11.461 7.4563-14.725 1.7554-3.2636 3.3522-6.0991 3.5476-6.3016.1956-.20219 3.4927.13931 7.3275.75905 3.8347.61973 9.4448 1.4299 12.466 1.8002 3.0218.37056 9.0544.95868 13.406 1.307 4.3513.34838 11.966.7643 16.922.92427 5.2155.16797 12.837.0848 18.096-.20564 4.9968-.27286 11.483-.79307 14.414-1.1557 2.9308-.36318 7.3474-1.0531 9.8141-1.5333 2.4673-.4808 5.5242-1.1512 6.7934-1.4906 1.2692-.33917 2.3065-.58563 2.3059-.54672-.00082.04-.60112 3.2348-1.3331 7.1024-.73194 3.868-1.7242 9.4063-2.2043 12.307-.48004 2.9008-1.1641 7.8456-1.5199 10.988-.35575 3.1428-.64748 8.8786-.64841 12.747-.00087 4.0294.28089 8.9095.6601 11.428.36355 2.4174 1.0647 5.8786 1.5582 7.692.49316 1.8128 1.6606 4.8804 2.5939 6.8166 1.054 2.1872 2.6915 4.601 4.3222 6.3733 1.4439 1.569 3.6942 3.4945 5.0012 4.2792 1.3068.78448 4.0477 1.8491 6.0903 2.3656 3.0168.76308 4.4987.89342 7.8938.69583 2.3616-.13794 5.5178-.65736 7.2562-1.1944 1.6922-.52269 4.3484-1.6416 5.903-2.4866 1.554-.84506 3.9364-2.391 5.294-3.4356 1.3575-1.0446 2.7041-2.1829 2.9915-2.5292.41985-.50573.0102-1.6222-2.0716-5.6479-1.4268-2.7592-3.3082-7.0786-4.1803-9.598-.87253-2.5194-2.0593-6.4753-2.6384-8.7906-.57824-2.3155-1.3617-6.089-1.7408-8.3854-.37892-2.2968-.91369-6.6481-1.1882-9.6699-.28442-3.1274-.3982-8.9022-.2643-13.406.14701-4.9511.73806-11.776 1.5794-18.24.73947-5.6812 3.2194-22.988 5.5106-38.459 2.2917-15.472 4.6698-31.79 5.2847-36.262.61494-4.4724 1.5098-11.494 1.9884-15.603.47793-4.1097 1.0753-9.6478 1.3276-12.307.25147-2.6592.45807-8.6066.45867-13.217.00045-5.0211-.27181-10.484-.67937-13.626-.37388-2.8841-1.1764-7.1229-1.7828-9.4194-.60648-2.2966-1.8935-5.812-2.8609-7.8122-1.1881-2.4574-2.6707-4.6035-4.5717-6.6188-1.7155-1.8189-3.7233-3.4266-5.1469-4.1215-1.2835-.6266-3.147-1.3571-4.1419-1.6233-1.5299-.40947-2.457-.31938-6.0219.58488-2.3177.58788-6.0528 1.7988-8.301 2.6907-2.2482.89206-6.214 2.7032-8.8131 4.0248-2.5995 1.3216-7.181 3.9403-10.181 5.8193-3 1.879-7.9936 5.2735-11.097 7.5432-3.1035 2.2697-7.9171 5.9908-10.697 8.269-2.7799 2.2783-7.4279 6.2184-10.329 8.7559-2.9012 2.5375-11.611 10.959-19.356 18.714-7.7446 7.7553-17.404 17.843-21.466 22.417-4.0614 4.5745-10.524 12.091-14.361 16.702-3.8369 4.6123-9.363 11.451-12.281 15.198-2.9171 3.7471-7.417 9.73-10 13.296-3.9274 5.4222-4.8426 6.4428-5.5913 6.235-.49287-.13702-5.6428-2.5902-11.444-5.4522-5.8022-2.862-13.318-6.8655-16.703-8.8968-3.3844-2.0309-7.2937-4.4534-8.6874-5.3824-1.3937-.93023-2.6336-1.5907-2.7554-1.4692-.1218.12186-.70695 2.3698-1.3003 4.9957-.59334 2.6259-1.2893 6.6871-1.5465 9.0248-.33243 3.0215-.33081 5.1077.0053 7.2139.26036 1.6294.76106 3.6516 1.1127 4.4932.35169.84184 1.3242 2.4633 2.1612 3.6031.83699 1.1403 2.7209 2.9144 4.1864 3.9424 1.4656 1.0282 4.4905 2.7208 6.7221 3.7613 2.2316 1.041 6.4309 2.7423 9.3317 3.7817 2.9011 1.039 5.4476 2.0368 5.6591 2.217.21197.18006-.89751 2.5674-2.4656 5.305-1.5683 2.7373-5.1893 9.2296-8.0472 14.427-2.8579 5.1972-8.5849 16.174-12.727 24.394-4.1417 8.2193-8.8801 18.01-10.53 21.757-1.6496 3.747-4.1352 9.6805-5.5237 13.186-1.3885 3.5051-3.3357 8.8454-4.3272 11.867-.9915 3.0216-2.2955 7.571-2.8977 10.109-.60225 2.5384-1.2943 6.3979-1.5379 8.577-.2801 2.5056-.2957 5.253-.04265 7.4738.22024 1.9308.73123 4.4856 1.1355 5.676.40428 1.1909 1.1819 2.8714 1.728 3.735.54614.86294 1.9235 2.4256 3.0608 3.4724 1.1374 1.0467 3.4892 2.5773 5.2263 3.4016 1.7371.82389 4.7651 1.9034 6.729 2.3992 1.9638.49588 6.0185 1.2717 9.0104 1.7244 2.9919.45251 6.2805.84016 7.3078.86208 1.8681.0405 1.8681.0405 1.8681-3.8148zm92.522-139.9c-2.9008-.22196-8.3798-.79828-12.176-1.2808-3.7958-.48226-10.323-1.5684-14.505-2.4131-4.1815-.84409-8.4306-1.7863-9.4425-2.094-1.839-.55843-1.839-.55843 1.6949-6.272 1.9435-3.1428 5.1271-8.1864 7.0747-11.208 1.9476-3.0223 5.7195-8.659 8.3823-12.527 2.6624-3.8678 7.7067-10.889 11.209-15.603 3.5024-4.7142 8.3502-11.043 10.773-14.065 2.4228-3.0213 5.9957-7.373 7.9394-9.6695 1.9438-2.2965 5.9123-6.8436 8.8185-10.105 2.9064-3.2609 8.6515-9.2934 12.766-13.406 4.1157-4.1123 9.7524-9.4272 12.527-11.811 2.7744-2.3837 6.9209-5.7462 9.2144-7.4721 2.2938-1.7259 6.2298-4.3751 8.7474-5.8872 2.5169-1.5121 5.3287-2.9747 6.2485-3.2502 1.4114-.42292 1.8526-.38256 2.8319.25901.63766.41799 1.5246 1.5851 1.9708 2.5936.44621 1.0085 1.0195 3.118 1.2744 4.6879.25443 1.5699.46242 5.1289.46192 7.9089-.00044 2.78-.2974 7.7248-.65952 10.988-.36221 3.2635-1.1555 8.9994-1.7634 12.746-.6073 3.747-1.8053 10.472-2.6622 14.944-.85685 4.4724-3.3211 16.241-5.476 26.152-2.1549 9.9115-5.1902 23.723-6.7449 30.692-1.555 6.9688-2.8942 12.738-2.9757 12.819-.0849.0846-2.8192.55286-6.0826 1.0483-3.2636.4953-8.8017 1.2153-12.307 1.6004-3.7631.41343-11.593.76698-19.12.86373-7.0106.0931-15.12-.0188-18.021-.24018z" />
		</g>
	</g>
</svg>
