<?xml version="1.0" encoding="UTF-8"?>
<!-- Created by Crease (https://forums.wyze.com/u/Crease) -->
<svg version="1.1" viewBox="0 0 360 360" xmlns="http://www.w3.org/2000/svg">
	<style type="text/css">
		.flair-base{
			fill:#00d0b9;
			stroke:#3f3f3f;
			stroke-width:2;
		}
		.flair-group{
			fill:#ffffff;
			stroke:#00d0b9;
			stroke-width:12;
		}
</style>
	<g id="Flair_Mod">
		<g id="Base_Mod" class="flair-base">
			<rect x="1" y="1" width="358" height="358" rx="120" ry="120" />
		</g>
		<g id="Group_Mod" class="flair-group">
			<g transform="matrix(.62505 0 0 .62505 27.49 27.49)">
				<path d="m98.469 198.8-13.125 14.764 6 6.7494c7.05 7.8462 7.05 20.67 0 28.601l-18 20.248c-6.975 7.9306-18.375 7.9306-25.425 0l-66-74.244c-7.05-7.8462-7.05-20.67 0-28.601l18-20.248c6.975-7.9306 18.375-7.9306 25.425 0l6 6.7494 11.85-13.414c-4.95-25.563 1.8-53.32 19.95-72.556l33.45-35.434c20.025-21.176 46.5-32.988 74.025-32.988h13.575c15.15 0 30.075 3.5434 43.875 10.377l35.4 17.717c4.2 2.1092 6.9 6.665 7.125 11.811s-2.25 9.9554-6.225 12.402c0 0-42.025-7.8349-61.734-1.8846-3.1837.96119-8.1378 5.772-8.1378 5.772 10.268 12.777 15.194 26.003 14.351 42.17 0 17.886-15.039 26.808-19.447 42.772l237.59 209.57c12.975 12.233 20.55 30.372 20.55 49.439 0 35.519-14.515 50.761-46.165 50.761-16.95 0-33.075-8.4368-43.95-23.117l-221.94-241.66c-15.046 8.2165-15.866 18.294-37.016 14.244z" />
				<path d="m362.67 240.49c63.631 0 115.17-51.539 115.17-115.17 0-11.013-1.5836-21.666-4.4628-31.816-2.2314-7.774-11.805-9.5015-17.491-3.815l-55.282 55.282c-2.1594 2.1594-5.1107 3.383-8.1339 3.383h-41.317c-6.3344 0-11.517-5.1826-11.517-11.517v-41.317c0-3.0232 1.2237-5.9744 3.3831-8.1339l55.282-55.282c5.6864-5.6864 3.8869-15.26-3.8151-17.491-10.149-2.8792-20.803-4.4628-31.816-4.4628-63.631 0-115.17 51.539-115.17 115.17 0 13.749 2.4475 26.993 6.8382 39.23l-203.67 203.97c-9.1349 9.1485-14.324 21.594-14.324 34.551 0 26.993 21.882 48.875 48.875 48.875 12.957 0 25.409-5.1826 34.551-14.324l203.67-203.97c12.237 4.4627 25.481 6.8382 39.23 6.8382zm-268.74 136.6c9.541 0 17.275 7.7345 17.275 17.275 0 9.541-7.7345 17.275-17.275 17.275-9.541 0-17.275-7.7345-17.275-17.275 0-9.541 7.7345-17.275 17.275-17.275z" />
			</g>
		</g>
	</g>
</svg>
