<?xml version="1.0" encoding="UTF-8"?>
<!-- Created by Crease (https://forums.wyze.com/u/Crease) -->
<svg version="1.1" viewBox="0 0 360 360" xmlns="http://www.w3.org/2000/svg">
	<style type="text/css">
		.flair-base{
			fill:#00d0b9;
			stroke:#3f3f3f;
			stroke-width:2;
		}
		.flair-group{
			fill:#ffffff;
			stroke:#00d0b9;
			stroke-width:4;
		}
</style>
	<g id="Flair_Maven">
		<g id="Base_Maven" class="flair-base">
			<circle cx="180" cy="180" r="179" />
		</g>
		<g id="Group_Maven" class="flair-group">
			<path d="m286.8 277.43c-5.6987-1.556-12.934-4.7375-16.08-7.0671-3.1449-2.3309-8.7323-8.1635-12.416-12.963-4.7529-6.1912-7.1203-12.111-8.155-20.392-.80119-6.4172-.87771-16.872-.17584-23.235.71275-6.3618 2.3598-15.428 3.6702-20.143 1.3106-4.7169 4.1581-14.092 6.3308-20.837 2.1716-6.7421 3.9476-14.219 3.9476-16.615 0-2.4398-1.4126-4.3557-3.211-4.3557-1.7669 0-6.9193 3.6179-11.451 8.0396-4.5313 4.4215-12.517 13.828-17.747 20.903-5.2287 7.0762-13.486 19.199-18.349 26.943-4.8629 7.7432-14.174 24.71-20.692 37.704-7.0707 14.102-14.043 25.065-17.291 27.193-2.9928 1.9619-8.2013 3.5654-11.574 3.5654-3.7333 0-8.0611-2.0507-11.056-5.2397-3.6017-3.8329-4.6118-6.8554-3.7668-11.255.63861-3.308 2.2738-9.8739 3.6385-14.591 1.3647-4.7171 3.2789-12.435 4.2524-17.151.97285-4.7172 3.2381-13.883 5.033-20.368 1.7948-6.4857 5.2673-20.52 7.7155-31.19 2.4497-10.67 4.4535-22.488 4.4535-26.264 0-5.1308-.94747-6.8488-3.7522-6.8048-2.0639.0227-7.2833 2.7349-11.6 6.0043-4.317 3.2699-13.481 12.191-20.368 19.825-6.8848 7.633-17.979 21.092-24.651 29.907-6.6732 8.8142-18.603 28.377-26.51 43.474-7.9081 15.097-16.631 28.924-19.385 30.729-2.893 1.8952-6.8573 2.694-9.3878 1.8912-2.4088-.76451-5.8326-2.8441-7.6088-4.6191-1.9786-1.9784-3.2287-7.2134-3.2287-13.525 0-5.664 1.5107-14.519 3.3569-19.679 1.8461-5.1584 5.7971-18.063 8.7809-28.676 2.9831-10.613 7.3024-27.496 9.5989-37.519 2.2945-10.022 6.2121-28.637 8.7047-41.365 3.3183-16.951 3.8948-23.778 2.1516-25.52-1.7426-1.7423-5.0091-1.3741-12.21 1.3758-5.4082 2.0656-12.791 6.2447-16.407 9.2866-4.9475 4.1634-7.4146 5.0013-9.9709 3.3894-1.8684-1.1787-3.7701-3.2629-4.2267-4.6318-.45099-1.3684 4.31-7.4297 10.593-13.469 6.2812-6.0386 15.28-12.712 19.997-14.83 4.7173-2.1175 10.871-4.3719 13.677-5.0094 2.8046-.6399 8.8471.33633 13.426 2.1721 4.58 1.8327 10.243 6.024 12.586 9.3149 3.5093 4.9277 4.2382 9.3256 4.1336 24.948-.0543 10.429-.96483 23.305-1.9868 28.611-1.0228 5.3058-3.7274 17.486-6.0125 27.067-2.2842 9.5803-4.8233 18.506-5.6437 19.831-.81977 1.326-1.1115 2.4123-.64799 2.4123.45665 0 4.4771-5.2793 8.9217-11.731 4.4434-6.4524 18.114-21.397 30.376-33.208 12.264-11.812 26.29-23.996 31.167-27.076 4.8783-3.0793 11.653-6.5697 15.055-7.7552 3.4021-1.1862 9.5424-1.5278 13.643-.7576 5.971 1.1202 8.3539 3.1591 11.964 10.235 3.663 7.1787 4.2878 11.283 3.3339 21.877-.64611 7.1723-2.5821 20.275-4.3023 29.119-1.7216 8.8439-2.8266 16.396-2.4578 16.784.35961.39708 3.3254-3.8249 6.5703-9.3614 3.2443-5.5355 10.806-16.045 16.804-23.355 5.9989-7.3102 14.283-16.184 18.41-19.719 4.1266-3.5349 10.431-8.4546 14.008-10.931 3.5772-2.4763 9.8482-5.0873 13.935-5.8022 4.3918-.76787 9.625-.18227 12.792 1.453 2.948 1.5139 7.0462 6.1168 9.1077 10.227 2.0616 4.1107 3.746 11.333 3.7438 16.049-.003 4.7172-2.0139 20.636-4.4686 35.376-2.557 15.357-4.1327 32.851-3.69 40.97.60201 10.918 2.0876 16.16 6.4964 22.822 3.1476 4.756 9.8767 10.939 14.955 13.74 7.0282 3.8772 9.2304 6.3607 9.2304 10.41 0 5.022-.72054 5.3416-12.864 5.7549-7.0753.23522-17.526-.83761-23.223-2.3942z" />
		</g>
	</g>
</svg>