<?xml version="1.0" encoding="UTF-8" standalone="no"?>
<!-- Created by Crease (https://forums.wyze.com/u/Crease) -->
<svg width="980.2879" height="75.679886" viewBox="0 0 980.28794 75.679889" version="1.1" id="svg1" xmlns="http://www.w3.org/2000/svg" xmlns:svg="http://www.w3.org/2000/svg">
	<style>
		* {
			fill: #808080;
			stroke: #000000;
			stroke-width: 0.8;
		}
	</style>
	<g id="layer1" transform="translate(-71.115839,-359.01046)">
		<g id="Industrial">
			<path id="Industrial_I" d="m 71.515987,433.13843 h 28.992003 v -6.336 h -6.720003 v -54.336 h 6.720003 v -6.336 H 71.515987 v 6.336 h 6.72 v 54.336 h -6.72 z" />
			<path id="Industrial_n" d="m 107.99606,433.13843 h 25.632 v -6.336 h -5.28 v -27.936 c 0,-5.28 4.512,-7.488 8.928,-7.488 5.568,0 7.776,2.688 7.776,9.408 v 26.016 h -5.28 v 6.336 h 25.632 v -6.336 h -5.76 v -26.496 c 0,-12.384 -4.512,-18.624 -16.8,-18.624 -8.064,0 -12.48,4.416 -14.304,9.504 h -0.48 v -9.504 l -20.064,4.128 v 5.472 l 5.76,1.248 v 34.272 h -5.76 z" />
			<path id="Industrial_d" d="m 191.99612,434.29043 c 6.912,0 11.616,-4.128 13.344,-8.64 h 0.48 v 8.64 l 20.352,-4.128 v -5.472 l -5.76,-1.248 v -63.264 l -20.352,4.128 v 5.472 l 5.76,1.248 v 19.104 h -0.48 c -1.824,-4.416 -6.144,-8.448 -13.344,-8.448 -12.288,0 -19.968,10.464 -19.968,26.304 0,15.84 7.68,26.304 19.968,26.304 z m 4.896,-8.832 c -5.28,0 -9.408,-3.84 -9.408,-10.944 v -13.152 c 0,-7.104 4.128,-10.944 9.408,-10.944 5.088,0 8.928,3.552 8.928,8.832 v 17.376 c 0,5.28 -3.84,8.832 -8.928,8.832 z" />
			<path id="Industrial_u" d="m 253.34012,434.29043 c 8.064,0 12.48,-4.416 14.304,-9.504 h 0.48 v 9.504 l 20.064,-4.128 v -5.472 l -5.76,-1.248 v -41.76 l -20.352,4.128 v 5.472 l 5.76,1.248 v 24.576 c 0,5.28 -4.512,7.488 -8.928,7.488 -5.568,0 -7.776,-2.688 -7.776,-9.408 v -33.504 l -20.352,4.128 v 5.472 l 5.76,1.248 v 23.136 c 0,12.384 4.512,18.624 16.8,18.624 z" />
			<path id="Industrial_s" d="m 316.12406,434.29043 c 11.616,0 19.488,-5.76 19.488,-16.32 0,-9.696 -5.568,-13.632 -16.416,-16.416 l -4.128,-1.056 c -5.28,-1.344 -6.912,-3.168 -6.912,-6.528 0,-3.36 2.496,-5.28 7.296,-5.28 6.72,0 9.6,2.496 9.6,7.392 v 1.728 h 9.408 v -14.976 h -9.408 v 5.088 h -0.384 c -0.96,-3.168 -4.512,-6.24 -11.232,-6.24 -10.848,0 -18.144,5.664 -18.144,15.744 0,8.832 5.28,13.632 16.32,16.704 l 4.512,1.248 c 4.704,1.344 6.624,2.88 6.624,6.048 0,3.936 -2.688,5.856 -8.832,5.856 -6.816,0 -9.792,-2.592 -9.792,-7.584 v -1.536 h -9.408 v 14.976 h 9.408 v -5.184 h 0.384 c 0.96,3.168 4.608,6.336 11.616,6.336 z" />
			<path id="Industrial_t" d="m 358.74801,434.09843 c 6.624,0 12.384,-0.96 14.4,-1.824 v -5.664 h -11.04 v -37.056 h 11.04 v -6.72 h -11.04 v -13.92 h -7.2 l -4.032,8.352 c -1.728,3.648 -3.264,5.568 -7.488,5.568 h -2.592 v 6.72 h 6.72 v 34.464 c 0,6.624 3.552,10.08 11.232,10.08 z" />
			<path id="Industrial_r" d="m 378.23593,433.13843 h 28.032 v -6.336 h -7.68 v -28.416 c 0,-4.128 4.128,-9.216 8.16,-9.216 0.384,0 0.576,0 0.864,0.096 l 0.096,0.48 c -0.864,0.384 -1.632,1.824 -1.632,3.36 0,3.456 2.496,6.336 7.104,6.336 4.896,0 7.68,-3.168 7.68,-8.256 0,-5.856 -3.84,-9.504 -10.08,-9.504 -6.336,0 -10.368,4.224 -12.096,9.504 h -0.384 v -9.504 l -20.064,4.128 v 5.472 l 5.76,1.248 v 34.272 h -5.76 z" />
			<path id="Industrial_i" d="m 438.52393,376.21043 c 5.28,0 8.544,-3.168 8.544,-8.16 v -0.48 c 0,-4.992 -3.264,-8.16 -8.544,-8.16 -5.28,0 -8.544,3.168 -8.544,8.16 v 0.48 c 0,4.992 3.264,8.16 8.544,8.16 z m -12.96,56.928 h 26.112 v -6.336 h -5.76 v -45.12 l -20.352,4.128 v 5.472 l 5.76,1.248 v 34.272 h -5.76 z" />
			<path id="Industrial_a" d="m 472.89184,434.29043 c 8.736,0 11.904,-4.512 13.728,-8.736 h 0.576 v 0.192 c 0,4.8 2.592,8.544 9.6,8.544 3.648,0 7.392,-0.768 9.6,-2.016 v -5.472 h -5.76 v -28.032 c 0,-10.752 -6.528,-17.088 -20.448,-17.088 -13.92,0 -21.216,6.144 -21.216,12.384 0,4.128 2.88,7.104 6.72,7.104 4.8,0 7.296,-2.976 7.296,-6.816 0,-2.784 -1.536,-4.416 -2.784,-5.088 v -0.48 c 1.44,-0.672 3.264,-1.056 5.952,-1.056 7.2,0 9.888,4.032 9.888,11.808 v 5.472 h -6.72 c -14.496,0 -21.984,5.088 -21.984,14.88 0,9.024 4.704,14.4 15.552,14.4 z m 5.472,-8.64 c -3.936,0 -6.624,-1.824 -6.624,-5.952 v -1.536 c 0,-4.704 2.976,-7.392 9.12,-7.392 h 5.184 v 7.584 c 0,5.376 -2.976,7.296 -7.68,7.296 z" />
			<path id="Industrial_l" d="m 511.57976,433.13843 h 26.112 v -6.336 h -5.76 v -66.624 l -20.352,4.128 v 5.472 l 5.76,1.248 v 55.776 h -5.76 z" />
		</g>
		<g id="revolution">
			<g id="g_anim_r_fading">
				<animate id="anim_r_fading" attributeName="opacity" begin="0s" values="1;1;1;0.8;0.6;0.4;0.2;0;0;0;0;0;0;0.2;0.4;0.6;0.8;1;1;1;1" dur="10s" repeatCount="indefinite" />
				<g id="r_fading">
					<path id="revolution_r" d="m 566.10782,433.13843 h 28.032 v -6.336 h -7.68 v -28.416 c 0,-4.128 4.128,-9.216 8.16,-9.216 0.384,0 0.576,0 0.864,0.096 l 0.096,0.48 c -0.864,0.384 -1.632,1.824 -1.632,3.36 0,3.456 2.496,6.336 7.104,6.336 4.896,0 7.68,-3.168 7.68,-8.256 0,-5.856 -3.84,-9.504 -10.08,-9.504 -6.336,0 -10.368,4.224 -12.096,9.504 h -0.384 v -9.504 l -20.064,4.128 v 5.472 l 5.76,1.248 v 34.272 h -5.76 z" />
				</g>
			</g>
			<g id="g_anim_evolution_sliding">
				<animateTransform id="anim_evolution_sliding" attributeName="transform" begin="0s" type="translate" values="0;0;0;-10.2;-20.4;-30.6;-40.8;-51;-51;-51;-51;-51;-51;-40.8;-30.6;-20.4;-10.2;0;0;0;0" dur="10s" repeatCount="indefinite" />
				<g id="evolution_sliding">
					<path id="revolution_e" d="m 638.10782,434.29043 c 12.672,0 19.104,-7.872 21.312,-14.208 l -5.28,-3.168 c -1.728,4.416 -6.048,8.064 -12.864,8.064 -7.392,0 -12.288,-4.416 -12.288,-12.96 v -3.84 h 31.584 v -3.264 c 0,-14.208 -9.024,-23.232 -23.328,-23.232 -14.304,0 -23.712,9.984 -23.712,26.208 0,15.36 8.832,26.4 24.576,26.4 z m -9.12,-33.504 c 0,-9.216 3.168,-12.48 8.256,-12.48 5.088,0 8.256,3.264 8.256,12.48 v 1.344 h -16.512 z" />
					<path id="revolution_v" d="m 684.6678,433.13843 h 11.328 l 16.32,-43.968 h 4.512 v -6.336 h -17.664 v 6.336 h 5.376 l -9.792,31.392 h -0.48 l -10.56,-31.392 h 5.376 v -6.336 h -25.248 v 6.336 h 4.512 z" />
					<path id="revolution_o1" d="m 743.89978,427.37843 c -5.76,0 -8.832,-3.648 -8.832,-10.56 v -17.664 c 0,-6.912 3.072,-10.56 8.832,-10.56 5.76,0 8.832,3.648 8.832,10.56 v 17.664 c 0,6.912 -3.072,10.56 -8.832,10.56 z m 0,6.912 c 14.592,0 24.288,-9.696 24.288,-26.304 0,-16.608 -9.696,-26.304 -24.288,-26.304 -14.592,0 -24.288,9.696 -24.288,26.304 0,16.608 9.696,26.304 24.288,26.304 z" />
					<path id="revolution_l" d="m 774.42785,433.13843 h 26.112 v -6.336 h -5.76 v -66.624 l -20.352,4.128 v 5.472 l 5.76,1.248 v 55.776 h -5.76 z" />
					<path id="revolution_u" d="m 827.80387,434.29043 c 8.064,0 12.48,-4.416 14.304,-9.504 h 0.48 v 9.504 l 20.064,-4.128 v -5.472 l -5.76,-1.248 v -41.76 l -20.352,4.128 v 5.472 l 5.76,1.248 v 24.576 c 0,5.28 -4.512,7.488 -8.928,7.488 -5.568,0 -7.776,-2.688 -7.776,-9.408 v -33.504 l -20.352,4.128 v 5.472 l 5.76,1.248 v 23.136 c 0,12.384 4.512,18.624 16.8,18.624 z" />
					<path id="revolution_t" d="m 885.1158,434.09843 c 6.624,0 12.384,-0.96 14.4,-1.824 v -5.664 h -11.04 v -37.056 h 11.04 v -6.72 h -11.04 v -13.92 h -7.2 l -4.032,8.352 c -1.728,3.648 -3.264,5.568 -7.488,5.568 h -2.592 v 6.72 h 6.72 v 34.464 c 0,6.624 3.552,10.08 11.232,10.08 z" />
					<path id="revolution_i" d="m 918.52375,376.21043 c 5.28,0 8.544,-3.168 8.544,-8.16 v -0.48 c 0,-4.992 -3.264,-8.16 -8.544,-8.16 -5.28,0 -8.544,3.168 -8.544,8.16 v 0.48 c 0,4.992 3.264,8.16 8.544,8.16 z m -12.96,56.928 h 26.112 v -6.336 h -5.76 v -45.12 l -20.352,4.128 v 5.472 l 5.76,1.248 v 34.272 h -5.76 z" />
					<path id="revolution_o2" d="m 962.10766,427.37843 c -5.76,0 -8.832,-3.648 -8.832,-10.56 v -17.664 c 0,-6.912 3.072,-10.56 8.832,-10.56 5.76,0 8.832,3.648 8.832,10.56 v 17.664 c 0,6.912 -3.072,10.56 -8.832,10.56 z m 0,6.912 c 14.592,0 24.288,-9.696 24.288,-26.304 0,-16.608 -9.696,-26.304 -24.288,-26.304 -14.592,0 -24.288,9.696 -24.288,26.304 0,16.608 9.696,26.304 24.288,26.304 z" />
					<path id="revolution_n" d="m 993.59573,433.13843 h 25.63197 v -6.336 h -5.28 v -27.936 c 0,-5.28 4.512,-7.488 8.928,-7.488 5.568,0 7.776,2.688 7.776,9.408 v 26.016 h -5.28 v 6.336 h 25.632 v -6.336 h -5.76 v -26.496 c 0,-12.384 -4.512,-18.624 -16.8,-18.624 -8.064,0 -12.48,4.416 -14.304,9.504 h -0.48 v -9.504 l -20.06397,4.128 v 5.472 l 5.76,1.248 v 34.272 h -5.76 z" />
				</g>
			</g>
		</g>
	</g>
</svg>
